<svg xmlns="http://www.w3.org/2000/svg" viewBox="0 0 400 344" width="400" height="344" role="img" aria-labelledby="titre" font-family="Arial, Helvetica, 'Liberation Sans', sans-serif"><title id="titre">Compter les mots</title><rect x="1" y="1" width="398" height="342" rx="18" ry="18" fill="#fffdf8" stroke="#e7dcc8" stroke-width="2"/><text x="200.0" y="34.0" font-size="18" font-weight="bold" fill="#7e22ce" text-anchor="middle">Compter les mots</text><text x="200.0" y="59.0" font-size="13" font-weight="normal" fill="#5b4b3a" text-anchor="middle" font-style="italic">Convention la plus courante (vérifie celle de ton</text><text x="200.0" y="75.9" font-size="13" font-weight="normal" fill="#5b4b3a" text-anchor="middle" font-style="italic">professeur)</text><rect x="20" y="102.80000000000001" width="360" height="30.5" fill="#7e22ce"/><line x1="128.0" y1="102.80000000000001" x2="128.0" y2="133.3" stroke="#e2d4bf" stroke-width="1"/><line x1="272.0" y1="102.80000000000001" x2="272.0" y2="133.3" stroke="#e2d4bf" stroke-width="1"/><text x="28.0" y="121.8" font-size="13.5" font-weight="bold" fill="#ffffff" text-anchor="start">Cas</text><text x="136.0" y="121.8" font-size="13.5" font-weight="bold" fill="#ffffff" text-anchor="start">Exemple</text><text x="280.0" y="121.8" font-size="13.5" font-weight="bold" fill="#ffffff" text-anchor="start">Compte</text><rect x="20" y="133.3" width="360" height="30.5" fill="#f6efe3"/><line x1="128.0" y1="133.3" x2="128.0" y2="163.8" stroke="#e2d4bf" stroke-width="1"/><line x1="272.0" y1="133.3" x2="272.0" y2="163.8" stroke="#e2d4bf" stroke-width="1"/><text x="28.0" y="152.3" font-size="13" font-weight="normal" fill="#2b2118" text-anchor="start">Élision</text><text x="136.0" y="152.3" font-size="13" font-weight="normal" fill="#2b2118" text-anchor="start">l'homme, c'est</text><text x="280.0" y="152.3" font-size="13" font-weight="normal" fill="#2b2118" text-anchor="start">2 mots</text><rect x="20" y="163.8" width="360" height="30.5" fill="#fffaf0"/><line x1="128.0" y1="163.8" x2="128.0" y2="194.3" stroke="#e2d4bf" stroke-width="1"/><line x1="272.0" y1="163.8" x2="272.0" y2="194.3" stroke="#e2d4bf" stroke-width="1"/><text x="28.0" y="182.8" font-size="13" font-weight="normal" fill="#2b2118" text-anchor="start">Trait d’union</text><text x="136.0" y="182.8" font-size="13" font-weight="normal" fill="#2b2118" text-anchor="start">taxi-moto</text><text x="280.0" y="182.8" font-size="13" font-weight="normal" fill="#2b2118" text-anchor="start">1 mot</text><rect x="20" y="194.3" width="360" height="30.5" fill="#f6efe3"/><line x1="128.0" y1="194.3" x2="128.0" y2="224.8" stroke="#e2d4bf" stroke-width="1"/><line x1="272.0" y1="194.3" x2="272.0" y2="224.8" stroke="#e2d4bf" stroke-width="1"/><text x="28.0" y="213.3" font-size="13" font-weight="normal" fill="#2b2118" text-anchor="start">Exception</text><text x="136.0" y="213.3" font-size="13" font-weight="normal" fill="#2b2118" text-anchor="start">aujourd'hui</text><text x="280.0" y="213.3" font-size="13" font-weight="normal" fill="#2b2118" text-anchor="start">1 mot</text><rect x="20" y="224.8" width="360" height="30.5" fill="#fffaf0"/><line x1="128.0" y1="224.8" x2="128.0" y2="255.3" stroke="#e2d4bf" stroke-width="1"/><line x1="272.0" y1="224.8" x2="272.0" y2="255.3" stroke="#e2d4bf" stroke-width="1"/><text x="28.0" y="243.8" font-size="13" font-weight="normal" fill="#2b2118" text-anchor="start">Chiffres</text><text x="136.0" y="243.8" font-size="13" font-weight="normal" fill="#2b2118" text-anchor="start">1960</text><text x="280.0" y="243.8" font-size="13" font-weight="normal" fill="#2b2118" text-anchor="start">1 mot</text><rect x="20" y="255.3" width="360" height="30.5" fill="#f6efe3"/><line x1="128.0" y1="255.3" x2="128.0" y2="285.8" stroke="#e2d4bf" stroke-width="1"/><line x1="272.0" y1="255.3" x2="272.0" y2="285.8" stroke="#e2d4bf" stroke-width="1"/><text x="28.0" y="274.3" font-size="13" font-weight="normal" fill="#2b2118" text-anchor="start">Sigle</text><text x="136.0" y="274.3" font-size="13" font-weight="normal" fill="#2b2118" text-anchor="start">ONU</text><text x="280.0" y="274.3" font-size="13" font-weight="normal" fill="#2b2118" text-anchor="start">1 mot</text><rect x="20" y="285.8" width="360" height="30.5" fill="#fffaf0"/><line x1="128.0" y1="285.8" x2="128.0" y2="316.3" stroke="#e2d4bf" stroke-width="1"/><line x1="272.0" y1="285.8" x2="272.0" y2="316.3" stroke="#e2d4bf" stroke-width="1"/><text x="28.0" y="304.8" font-size="13" font-weight="normal" fill="#2b2118" text-anchor="start">Fourchette</text><text x="136.0" y="304.8" font-size="13" font-weight="normal" fill="#2b2118" text-anchor="start">600 mots ÷ 4 = 150</text><text x="280.0" y="304.8" font-size="13" font-weight="normal" fill="#2b2118" text-anchor="start">135 à 165</text><rect x="20" y="102.80000000000001" width="360" height="213.5" rx="6" fill="none" stroke="#c9b8a3" stroke-width="1.5"/><text x="386" y="335" font-size="10" fill="#8a7a66" text-anchor="end">Nexus · Français 2nde</text></svg>