<svg xmlns="http://www.w3.org/2000/svg" viewBox="0 0 400 252" width="400" height="252" role="img" aria-labelledby="titre" font-family="Arial, Helvetica, 'Liberation Sans', sans-serif"><title id="titre">Conte, nouvelle, roman</title><rect x="1" y="1" width="398" height="250" rx="18" ry="18" fill="#fffdf8" stroke="#e7dcc8" stroke-width="2"/><text x="200.0" y="34.0" font-size="18" font-weight="bold" fill="#7e22ce" text-anchor="middle">Conte, nouvelle, roman</text><text x="200.0" y="59.0" font-size="13" font-weight="normal" fill="#5b4b3a" text-anchor="middle" font-style="italic">Trois genres du récit</text><rect x="20" y="85.9" width="360" height="30.5" fill="#7e22ce"/><line x1="106.39999999999999" y1="85.9" x2="106.39999999999999" y2="116.4" stroke="#e2d4bf" stroke-width="1"/><line x1="185.6" y1="85.9" x2="185.6" y2="116.4" stroke="#e2d4bf" stroke-width="1"/><text x="28.0" y="104.9" font-size="13.5" font-weight="bold" fill="#ffffff" text-anchor="start">Genre</text><text x="114.4" y="104.9" font-size="13.5" font-weight="bold" fill="#ffffff" text-anchor="start">Longueur</text><text x="193.6" y="104.9" font-size="13.5" font-weight="bold" fill="#ffffff" text-anchor="start">Traits</text><rect x="20" y="116.4" width="360" height="30.5" fill="#f6efe3"/><line x1="106.39999999999999" y1="116.4" x2="106.39999999999999" y2="146.9" stroke="#e2d4bf" stroke-width="1"/><line x1="185.6" y1="116.4" x2="185.6" y2="146.9" stroke="#e2d4bf" stroke-width="1"/><text x="28.0" y="135.4" font-size="13" font-weight="normal" fill="#2b2118" text-anchor="start">Conte</text><text x="114.4" y="135.4" font-size="13" font-weight="normal" fill="#2b2118" text-anchor="start">court</text><text x="193.6" y="135.4" font-size="13" font-weight="normal" fill="#2b2118" text-anchor="start">oral, merveilleux, morale</text><rect x="20" y="146.9" width="360" height="30.5" fill="#fffaf0"/><line x1="106.39999999999999" y1="146.9" x2="106.39999999999999" y2="177.4" stroke="#e2d4bf" stroke-width="1"/><line x1="185.6" y1="146.9" x2="185.6" y2="177.4" stroke="#e2d4bf" stroke-width="1"/><text x="28.0" y="165.9" font-size="13" font-weight="normal" fill="#2b2118" text-anchor="start">Nouvelle</text><text x="114.4" y="165.9" font-size="13" font-weight="normal" fill="#2b2118" text-anchor="start">bref</text><text x="193.6" y="165.9" font-size="13" font-weight="normal" fill="#2b2118" text-anchor="start">peu de personnages, chute</text><rect x="20" y="177.4" width="360" height="47.0" fill="#f6efe3"/><line x1="106.39999999999999" y1="177.4" x2="106.39999999999999" y2="224.4" stroke="#e2d4bf" stroke-width="1"/><line x1="185.6" y1="177.4" x2="185.6" y2="224.4" stroke="#e2d4bf" stroke-width="1"/><text x="28.0" y="196.4" font-size="13" font-weight="normal" fill="#2b2118" text-anchor="start">Roman</text><text x="114.4" y="196.4" font-size="13" font-weight="normal" fill="#2b2118" text-anchor="start">long</text><text x="193.6" y="196.4" font-size="13" font-weight="normal" fill="#2b2118" text-anchor="start">nombreux personnages,</text><text x="193.6" y="212.9" font-size="13" font-weight="normal" fill="#2b2118" text-anchor="start">intrigues, évolution</text><rect x="20" y="85.9" width="360" height="138.5" rx="6" fill="none" stroke="#c9b8a3" stroke-width="1.5"/><text x="386" y="243" font-size="10" fill="#8a7a66" text-anchor="end">Nexus · Français 2nde</text></svg>