<svg xmlns="http://www.w3.org/2000/svg" viewBox="0 0 400 380" font-family="sans-serif"><title>Hyperbole y = 1/x et hyperbole y = 2 + 3/(x − 1) de centre Ω(1 ; 2)</title><defs><marker id="a1f2937" viewBox="0 0 10 10" refX="9" refY="5" markerWidth="7" markerHeight="7" orient="auto-start-reverse"><path d="M0,0 L10,5 L0,10 z" fill="#1f2937"/></marker><clipPath id="clip0"><rect x="20.0" y="40.0" width="365.0" height="320.0"/></clipPath></defs><rect x="0" y="0" width="400" height="380" rx="16" fill="#fffdf8"/><line x1="20.0" y1="360.0" x2="20.0" y2="40.0" stroke="#e5e7eb" stroke-width="1" stroke-linecap="round"/><line x1="56.5" y1="360.0" x2="56.5" y2="40.0" stroke="#e5e7eb" stroke-width="1" stroke-linecap="round"/><line x1="93.0" y1="360.0" x2="93.0" y2="40.0" stroke="#e5e7eb" stroke-width="1" stroke-linecap="round"/><line x1="129.5" y1="360.0" x2="129.5" y2="40.0" stroke="#e5e7eb" stroke-width="1" stroke-linecap="round"/><line x1="166.0" y1="360.0" x2="166.0" y2="40.0" stroke="#e5e7eb" stroke-width="1" stroke-linecap="round"/><line x1="202.5" y1="360.0" x2="202.5" y2="40.0" stroke="#e5e7eb" stroke-width="1" stroke-linecap="round"/><line x1="239.0" y1="360.0" x2="239.0" y2="40.0" stroke="#e5e7eb" stroke-width="1" stroke-linecap="round"/><line x1="275.5" y1="360.0" x2="275.5" y2="40.0" stroke="#e5e7eb" stroke-width="1" stroke-linecap="round"/><line x1="312.0" y1="360.0" x2="312.0" y2="40.0" stroke="#e5e7eb" stroke-width="1" stroke-linecap="round"/><line x1="348.5" y1="360.0" x2="348.5" y2="40.0" stroke="#e5e7eb" stroke-width="1" stroke-linecap="round"/><line x1="385.0" y1="360.0" x2="385.0" y2="40.0" stroke="#e5e7eb" stroke-width="1" stroke-linecap="round"/><line x1="20.0" y1="360.0" x2="385.0" y2="360.0" stroke="#e5e7eb" stroke-width="1" stroke-linecap="round"/><line x1="20.0" y1="328.0" x2="385.0" y2="328.0" stroke="#e5e7eb" stroke-width="1" stroke-linecap="round"/><line x1="20.0" y1="296.0" x2="385.0" y2="296.0" stroke="#e5e7eb" stroke-width="1" stroke-linecap="round"/><line x1="20.0" y1="264.0" x2="385.0" y2="264.0" stroke="#e5e7eb" stroke-width="1" stroke-linecap="round"/><line x1="20.0" y1="232.0" x2="385.0" y2="232.0" stroke="#e5e7eb" stroke-width="1" stroke-linecap="round"/><line x1="20.0" y1="200.0" x2="385.0" y2="200.0" stroke="#e5e7eb" stroke-width="1" stroke-linecap="round"/><line x1="20.0" y1="168.0" x2="385.0" y2="168.0" stroke="#e5e7eb" stroke-width="1" stroke-linecap="round"/><line x1="20.0" y1="136.0" x2="385.0" y2="136.0" stroke="#e5e7eb" stroke-width="1" stroke-linecap="round"/><line x1="20.0" y1="104.0" x2="385.0" y2="104.0" stroke="#e5e7eb" stroke-width="1" stroke-linecap="round"/><line x1="20.0" y1="72.0" x2="385.0" y2="72.0" stroke="#e5e7eb" stroke-width="1" stroke-linecap="round"/><line x1="20.0" y1="40.0" x2="385.0" y2="40.0" stroke="#e5e7eb" stroke-width="1" stroke-linecap="round"/><line x1="20.0" y1="264.0" x2="391.0" y2="264.0" stroke="#1f2937" stroke-width="1.6" marker-end="url(#a1f2937)" stroke-linecap="round"/><text x="383.0" y="256.0" fill="#1f2937" font-size="13" text-anchor="end" font-style="italic">x</text><line x1="166.0" y1="360.0" x2="166.0" y2="34.0" stroke="#1f2937" stroke-width="1.6" marker-end="url(#a1f2937)" stroke-linecap="round"/><text x="174.0" y="48.0" fill="#1f2937" font-size="13" text-anchor="start" font-style="italic">y</text><line x1="20.0" y1="261.0" x2="20.0" y2="267.0" stroke="#1f2937" stroke-width="1.2" stroke-linecap="round"/><text x="20.0" y="280.0" fill="#6b7280" font-size="12" text-anchor="middle">−4</text><line x1="56.5" y1="261.0" x2="56.5" y2="267.0" stroke="#1f2937" stroke-width="1.2" stroke-linecap="round"/><text x="56.5" y="280.0" fill="#6b7280" font-size="12" text-anchor="middle">−3</text><line x1="93.0" y1="261.0" x2="93.0" y2="267.0" stroke="#1f2937" stroke-width="1.2" stroke-linecap="round"/><text x="93.0" y="280.0" fill="#6b7280" font-size="12" text-anchor="middle">−2</text><line x1="129.5" y1="261.0" x2="129.5" y2="267.0" stroke="#1f2937" stroke-width="1.2" stroke-linecap="round"/><text x="129.5" y="280.0" fill="#6b7280" font-size="12" text-anchor="middle">−1</text><line x1="202.5" y1="261.0" x2="202.5" y2="267.0" stroke="#1f2937" stroke-width="1.2" stroke-linecap="round"/><text x="202.5" y="280.0" fill="#6b7280" font-size="12" text-anchor="middle">1</text><line x1="239.0" y1="261.0" x2="239.0" y2="267.0" stroke="#1f2937" stroke-width="1.2" stroke-linecap="round"/><text x="239.0" y="280.0" fill="#6b7280" font-size="12" text-anchor="middle">2</text><line x1="275.5" y1="261.0" x2="275.5" y2="267.0" stroke="#1f2937" stroke-width="1.2" stroke-linecap="round"/><text x="275.5" y="280.0" fill="#6b7280" font-size="12" text-anchor="middle">3</text><line x1="312.0" y1="261.0" x2="312.0" y2="267.0" stroke="#1f2937" stroke-width="1.2" stroke-linecap="round"/><text x="312.0" y="280.0" fill="#6b7280" font-size="12" text-anchor="middle">4</text><line x1="348.5" y1="261.0" x2="348.5" y2="267.0" stroke="#1f2937" stroke-width="1.2" stroke-linecap="round"/><text x="348.5" y="280.0" fill="#6b7280" font-size="12" text-anchor="middle">5</text><line x1="163.0" y1="360.0" x2="169.0" y2="360.0" stroke="#1f2937" stroke-width="1.2" stroke-linecap="round"/><text x="160.0" y="364.0" fill="#6b7280" font-size="12" text-anchor="end">−3</text><line x1="163.0" y1="328.0" x2="169.0" y2="328.0" stroke="#1f2937" stroke-width="1.2" stroke-linecap="round"/><text x="160.0" y="332.0" fill="#6b7280" font-size="12" text-anchor="end">−2</text><line x1="163.0" y1="296.0" x2="169.0" y2="296.0" stroke="#1f2937" stroke-width="1.2" stroke-linecap="round"/><text x="160.0" y="300.0" fill="#6b7280" font-size="12" text-anchor="end">−1</text><line x1="163.0" y1="232.0" x2="169.0" y2="232.0" stroke="#1f2937" stroke-width="1.2" stroke-linecap="round"/><text x="160.0" y="236.0" fill="#6b7280" font-size="12" text-anchor="end">1</text><line x1="163.0" y1="200.0" x2="169.0" y2="200.0" stroke="#1f2937" stroke-width="1.2" stroke-linecap="round"/><text x="160.0" y="204.0" fill="#6b7280" font-size="12" text-anchor="end">2</text><line x1="163.0" y1="168.0" x2="169.0" y2="168.0" stroke="#1f2937" stroke-width="1.2" stroke-linecap="round"/><text x="160.0" y="172.0" fill="#6b7280" font-size="12" text-anchor="end">3</text><line x1="163.0" y1="136.0" x2="169.0" y2="136.0" stroke="#1f2937" stroke-width="1.2" stroke-linecap="round"/><text x="160.0" y="140.0" fill="#6b7280" font-size="12" text-anchor="end">4</text><line x1="163.0" y1="104.0" x2="169.0" y2="104.0" stroke="#1f2937" stroke-width="1.2" stroke-linecap="round"/><text x="160.0" y="108.0" fill="#6b7280" font-size="12" text-anchor="end">5</text><line x1="163.0" y1="72.0" x2="169.0" y2="72.0" stroke="#1f2937" stroke-width="1.2" stroke-linecap="round"/><text x="160.0" y="76.0" fill="#6b7280" font-size="12" text-anchor="end">6</text><text x="160.0" y="279.0" fill="#6b7280" font-size="12" text-anchor="end">O</text><polyline points="20.0,272.0 20.5,272.0 20.9,272.1 21.4,272.1 21.8,272.1 22.3,272.1 22.7,272.2 23.2,272.2 23.7,272.2 24.1,272.2 24.6,272.3 25.0,272.3 25.5,272.3 25.9,272.3 26.4,272.4 26.8,272.4 27.3,272.4 27.8,272.4 28.2,272.5 28.7,272.5 29.1,272.5 29.6,272.6 30.0,272.6 30.5,272.6 30.9,272.6 31.4,272.7 31.9,272.7 32.3,272.7 32.8,272.8 33.2,272.8 33.7,272.8 34.1,272.9 34.6,272.9 35.1,272.9 35.5,273.0 36.0,273.0 36.4,273.0 36.9,273.0 37.3,273.1 37.8,273.1 38.2,273.1 38.7,273.2 39.2,273.2 39.6,273.2 40.1,273.3 40.5,273.3 41.0,273.3 41.4,273.4 41.9,273.4 42.4,273.4 42.8,273.5 43.3,273.5 43.7,273.6 44.2,273.6 44.6,273.6 45.1,273.7 45.6,273.7 46.0,273.7 46.5,273.8 46.9,273.8 47.4,273.8 47.8,273.9 48.3,273.9 48.7,274.0 49.2,274.0 49.7,274.0 50.1,274.1 50.6,274.1 51.0,274.2 51.5,274.2 51.9,274.2 52.4,274.3 52.8,274.3 53.3,274.4 53.8,274.4 54.2,274.4 54.7,274.5 55.1,274.5 55.6,274.6 56.0,274.6 56.5,274.7 57.0,274.7 57.4,274.8 57.9,274.8 58.3,274.8 58.8,274.9 59.2,274.9 59.7,275.0 60.2,275.0 60.6,275.1 61.1,275.1 61.5,275.2 62.0,275.2 62.4,275.3 62.9,275.3 63.3,275.4 63.8,275.4 64.3,275.5 64.7,275.5 65.2,275.6 65.6,275.6 66.1,275.7 66.5,275.7 67.0,275.8 67.4,275.9 67.9,275.9 68.4,276.0 68.8,276.0 69.3,276.1 69.7,276.1 70.2,276.2 70.6,276.2 71.1,276.3 71.6,276.4 72.0,276.4 72.5,276.5 72.9,276.5 73.4,276.6 73.8,276.7 74.3,276.7 74.8,276.8 75.2,276.9 75.7,276.9 76.1,277.0 76.6,277.1 77.0,277.1 77.5,277.2 77.9,277.3 78.4,277.3 78.9,277.4 79.3,277.5 79.8,277.5 80.2,277.6 80.7,277.7 81.1,277.8 81.6,277.8 82.1,277.9 82.5,278.0 83.0,278.1 83.4,278.1 83.9,278.2 84.3,278.3 84.8,278.4 85.2,278.5 85.7,278.5 86.2,278.6 86.6,278.7 87.1,278.8 87.5,278.9 88.0,279.0 88.4,279.1 88.9,279.1 89.3,279.2 89.8,279.3 90.3,279.4 90.7,279.5 91.2,279.6 91.6,279.7 92.1,279.8 92.5,279.9 93.0,280.0 93.5,280.1 93.9,280.2 94.4,280.3 94.8,280.4 95.3,280.5 95.7,280.6 96.2,280.7 96.7,280.8 97.1,281.0 97.6,281.1 98.0,281.2 98.5,281.3 98.9,281.4 99.4,281.5 99.8,281.7 100.3,281.8 100.8,281.9 101.2,282.0 101.7,282.2 102.1,282.3 102.6,282.4 103.0,282.6 103.5,282.7 103.9,282.8 104.4,283.0 104.9,283.1 105.3,283.2 105.8,283.4 106.2,283.5 106.7,283.7 107.1,283.8 107.6,284.0 108.1,284.2 108.5,284.3 109.0,284.5 109.4,284.6 109.9,284.8 110.3,285.0 110.8,285.2 111.2,285.3 111.7,285.5 112.2,285.7 112.6,285.9 113.1,286.1 113.5,286.3 114.0,286.5 114.4,286.7 114.9,286.9 115.4,287.1 115.8,287.3 116.3,287.5 116.7,287.7 117.2,287.9 117.6,288.2 118.1,288.4 118.6,288.6 119.0,288.9 119.5,289.1 119.9,289.3 120.4,289.6 120.8,289.9 121.3,290.1 121.7,290.4 122.2,290.7 122.7,290.9 123.1,291.2 123.6,291.5 124.0,291.8 124.5,292.1 124.9,292.4 125.4,292.8 125.8,293.1 126.3,293.4 126.8,293.8 127.2,294.1 127.7,294.5 128.1,294.8 128.6,295.2 129.0,295.6 129.5,296.0 130.0,296.4 130.4,296.8 130.9,297.2 131.3,297.7 131.8,298.1 132.2,298.6 132.7,299.1 133.2,299.6 133.6,300.1 134.1,300.6 134.5,301.1 135.0,301.6 135.4,302.2 135.9,302.8 136.3,303.4 136.8,304.0 137.3,304.6 137.7,305.3 138.2,306.0 138.6,306.7 139.1,307.4 139.5,308.1 140.0,308.9 140.4,309.7 140.9,310.5 141.4,311.4 141.8,312.3 142.3,313.2 142.7,314.2 143.2,315.2 143.6,316.2 144.1,317.3 144.6,318.5 145.0,319.7 145.5,320.9 145.9,322.2 146.4,323.5 146.8,325.0 147.3,326.4 147.8,328.0 148.2,329.6 148.7,331.4 149.1,333.2 149.6,335.1 150.0,337.1 150.5,339.3 150.9,341.6 151.4,344.0 151.9,346.6 152.3,349.3 152.8,352.3 153.2,355.4 153.7,358.8 154.1,362.5 154.6,366.4 155.1,370.7 155.5,375.3 156.0,380.4 156.4,385.9 156.9,392.0 157.3,398.7 157.8,406.2 158.2,414.6 158.7,424.0 159.2,434.7 159.6,446.9 160.1,460.9 160.5,477.3 161.0,496.7 161.4,520.0 161.9,548.4 162.3,584.0 162.8,629.7 163.3,690.7 163.7,776.0 164.2,904.0 164.6,1117.3 165.1,1544.0 165.5,2824.0" stroke="#6b7280" fill="none" stroke-width="1.8" stroke-dasharray="6 5" clip-path="url(#clip0)" stroke-linejoin="round" stroke-linecap="round"/><polyline points="166.5,-2296.0 166.9,-1016.0 167.4,-589.3 167.8,-376.0 168.3,-248.0 168.7,-162.7 169.2,-101.7 169.6,-56.0 170.1,-20.4 170.6,8.0 171.0,31.3 171.5,50.7 171.9,67.1 172.4,81.1 172.8,93.3 173.3,104.0 173.8,113.4 174.2,121.8 174.7,129.3 175.1,136.0 175.6,142.1 176.0,147.6 176.5,152.7 176.9,157.3 177.4,161.6 177.9,165.5 178.3,169.2 178.8,172.6 179.2,175.7 179.7,178.7 180.1,181.4 180.6,184.0 181.1,186.4 181.5,188.7 182.0,190.9 182.4,192.9 182.9,194.8 183.3,196.6 183.8,198.4 184.2,200.0 184.7,201.6 185.2,203.0 185.6,204.5 186.1,205.8 186.5,207.1 187.0,208.3 187.4,209.5 187.9,210.7 188.4,211.8 188.8,212.8 189.3,213.8 189.7,214.8 190.2,215.7 190.6,216.6 191.1,217.5 191.6,218.3 192.0,219.1 192.5,219.9 192.9,220.6 193.4,221.3 193.8,222.0 194.3,222.7 194.7,223.4 195.2,224.0 195.7,224.6 196.1,225.2 196.6,225.8 197.0,226.4 197.5,226.9 197.9,227.4 198.4,227.9 198.9,228.4 199.3,228.9 199.8,229.4 200.2,229.9 200.7,230.3 201.1,230.8 201.6,231.2 202.0,231.6 202.5,232.0 203.0,232.4 203.4,232.8 203.9,233.2 204.3,233.5 204.8,233.9 205.2,234.2 205.7,234.6 206.1,234.9 206.6,235.2 207.1,235.6 207.5,235.9 208.0,236.2 208.4,236.5 208.9,236.8 209.3,237.1 209.8,237.3 210.3,237.6 210.7,237.9 211.2,238.1 211.6,238.4 212.1,238.7 212.5,238.9 213.0,239.1 213.4,239.4 213.9,239.6 214.4,239.8 214.8,240.1 215.3,240.3 215.7,240.5 216.2,240.7 216.6,240.9 217.1,241.1 217.6,241.3 218.0,241.5 218.5,241.7 218.9,241.9 219.4,242.1 219.8,242.3 220.3,242.5 220.8,242.7 221.2,242.8 221.7,243.0 222.1,243.2 222.6,243.4 223.0,243.5 223.5,243.7 223.9,243.8 224.4,244.0 224.9,244.2 225.3,244.3 225.8,244.5 226.2,244.6 226.7,244.8 227.1,244.9 227.6,245.0 228.1,245.2 228.5,245.3 229.0,245.4 229.4,245.6 229.9,245.7 230.3,245.8 230.8,246.0 231.2,246.1 231.7,246.2 232.2,246.3 232.6,246.5 233.1,246.6 233.5,246.7 234.0,246.8 234.4,246.9 234.9,247.0 235.4,247.2 235.8,247.3 236.3,247.4 236.7,247.5 237.2,247.6 237.6,247.7 238.1,247.8 238.5,247.9 239.0,248.0 239.5,248.1 239.9,248.2 240.4,248.3 240.8,248.4 241.3,248.5 241.7,248.6 242.2,248.7 242.6,248.8 243.1,248.9 243.6,248.9 244.0,249.0 244.5,249.1 244.9,249.2 245.4,249.3 245.8,249.4 246.3,249.5 246.8,249.5 247.2,249.6 247.7,249.7 248.1,249.8 248.6,249.9 249.0,249.9 249.5,250.0 249.9,250.1 250.4,250.2 250.9,250.2 251.3,250.3 251.8,250.4 252.2,250.5 252.7,250.5 253.1,250.6 253.6,250.7 254.1,250.7 254.5,250.8 255.0,250.9 255.4,250.9 255.9,251.0 256.3,251.1 256.8,251.1 257.2,251.2 257.7,251.3 258.2,251.3 258.6,251.4 259.1,251.5 259.5,251.5 260.0,251.6 260.4,251.6 260.9,251.7 261.4,251.8 261.8,251.8 262.3,251.9 262.7,251.9 263.2,252.0 263.6,252.0 264.1,252.1 264.6,252.1 265.0,252.2 265.5,252.3 265.9,252.3 266.4,252.4 266.8,252.4 267.3,252.5 267.7,252.5 268.2,252.6 268.7,252.6 269.1,252.7 269.6,252.7 270.0,252.8 270.5,252.8 270.9,252.9 271.4,252.9 271.9,253.0 272.3,253.0 272.8,253.1 273.2,253.1 273.7,253.2 274.1,253.2 274.6,253.2 275.0,253.3 275.5,253.3 276.0,253.4 276.4,253.4 276.9,253.5 277.3,253.5 277.8,253.6 278.2,253.6 278.7,253.6 279.1,253.7 279.6,253.7 280.1,253.8 280.5,253.8 281.0,253.8 281.4,253.9 281.9,253.9 282.3,254.0 282.8,254.0 283.3,254.0 283.7,254.1 284.2,254.1 284.6,254.2 285.1,254.2 285.5,254.2 286.0,254.3 286.4,254.3 286.9,254.3 287.4,254.4 287.8,254.4 288.3,254.4 288.7,254.5 289.2,254.5 289.6,254.6 290.1,254.6 290.6,254.6 291.0,254.7 291.5,254.7 291.9,254.7 292.4,254.8 292.8,254.8 293.3,254.8 293.8,254.9 294.2,254.9 294.7,254.9 295.1,255.0 295.6,255.0 296.0,255.0 296.5,255.0 296.9,255.1 297.4,255.1 297.9,255.1 298.3,255.2 298.8,255.2 299.2,255.2 299.7,255.3 300.1,255.3 300.6,255.3 301.1,255.4 301.5,255.4 302.0,255.4 302.4,255.4 302.9,255.5 303.3,255.5 303.8,255.5 304.2,255.6 304.7,255.6 305.2,255.6 305.6,255.6 306.1,255.7 306.5,255.7 307.0,255.7 307.4,255.7 307.9,255.8 308.4,255.8 308.8,255.8 309.3,255.8 309.7,255.9 310.2,255.9 310.6,255.9 311.1,255.9 311.5,256.0 312.0,256.0 312.5,256.0 312.9,256.0 313.4,256.1 313.8,256.1 314.3,256.1 314.7,256.1 315.2,256.2 315.6,256.2 316.1,256.2 316.6,256.2 317.0,256.3 317.5,256.3 317.9,256.3 318.4,256.3 318.8,256.4 319.3,256.4 319.8,256.4 320.2,256.4 320.7,256.4 321.1,256.5 321.6,256.5 322.0,256.5 322.5,256.5 323.0,256.6 323.4,256.6 323.9,256.6 324.3,256.6 324.8,256.6 325.2,256.7 325.7,256.7 326.1,256.7 326.6,256.7 327.1,256.7 327.5,256.8 328.0,256.8 328.4,256.8 328.9,256.8 329.3,256.8 329.8,256.9 330.2,256.9 330.7,256.9 331.2,256.9 331.6,256.9 332.1,257.0 332.5,257.0 333.0,257.0 333.4,257.0 333.9,257.0 334.4,257.1 334.8,257.1 335.3,257.1 335.7,257.1 336.2,257.1 336.6,257.2 337.1,257.2 337.5,257.2 338.0,257.2 338.5,257.2 338.9,257.2 339.4,257.3 339.8,257.3 340.3,257.3 340.7,257.3 341.2,257.3 341.7,257.4 342.1,257.4 342.6,257.4 343.0,257.4 343.5,257.4 343.9,257.4 344.4,257.5 344.9,257.5 345.3,257.5 345.8,257.5 346.2,257.5 346.7,257.5 347.1,257.6 347.6,257.6 348.0,257.6 348.5,257.6 349.0,257.6 349.4,257.6 349.9,257.6 350.3,257.7 350.8,257.7 351.2,257.7 351.7,257.7 352.1,257.7 352.6,257.7 353.1,257.8 353.5,257.8 354.0,257.8 354.4,257.8 354.9,257.8 355.3,257.8 355.8,257.8 356.3,257.9 356.7,257.9 357.2,257.9 357.6,257.9 358.1,257.9 358.5,257.9 359.0,257.9 359.5,258.0 359.9,258.0 360.4,258.0 360.8,258.0 361.3,258.0 361.7,258.0 362.2,258.0 362.6,258.1 363.1,258.1 363.6,258.1 364.0,258.1 364.5,258.1 364.9,258.1 365.4,258.1 365.8,258.2 366.3,258.2 366.8,258.2 367.2,258.2 367.7,258.2 368.1,258.2 368.6,258.2 369.0,258.2 369.5,258.3 369.9,258.3 370.4,258.3 370.9,258.3 371.3,258.3 371.8,258.3 372.2,258.3 372.7,258.3 373.1,258.4 373.6,258.4 374.0,258.4 374.5,258.4 375.0,258.4 375.4,258.4 375.9,258.4 376.3,258.4 376.8,258.5 377.2,258.5 377.7,258.5 378.2,258.5 378.6,258.5 379.1,258.5 379.5,258.5 380.0,258.5 380.4,258.6 380.9,258.6 381.4,258.6 381.8,258.6 382.3,258.6 382.7,258.6 383.2,258.6 383.6,258.6 384.1,258.6 384.5,258.7 385.0,258.7" stroke="#6b7280" fill="none" stroke-width="1.8" stroke-dasharray="6 5" clip-path="url(#clip0)" stroke-linejoin="round" stroke-linecap="round"/><polyline points="20.0,219.2 20.5,219.2 20.9,219.3 21.4,219.3 21.8,219.4 22.3,219.4 22.7,219.5 23.2,219.5 23.7,219.6 24.1,219.6 24.6,219.7 25.0,219.7 25.5,219.8 25.9,219.8 26.4,219.9 26.8,219.9 27.3,220.0 27.8,220.1 28.2,220.1 28.7,220.2 29.1,220.2 29.6,220.3 30.0,220.3 30.5,220.4 30.9,220.4 31.4,220.5 31.9,220.5 32.3,220.6 32.8,220.6 33.2,220.7 33.7,220.8 34.1,220.8 34.6,220.9 35.1,220.9 35.5,221.0 36.0,221.0 36.4,221.1 36.9,221.2 37.3,221.2 37.8,221.3 38.2,221.3 38.7,221.4 39.2,221.5 39.6,221.5 40.1,221.6 40.5,221.6 41.0,221.7 41.4,221.8 41.9,221.8 42.4,221.9 42.8,221.9 43.3,222.0 43.7,222.1 44.2,222.1 44.6,222.2 45.1,222.3 45.6,222.3 46.0,222.4 46.5,222.5 46.9,222.5 47.4,222.6 47.8,222.7 48.3,222.7 48.7,222.8 49.2,222.9 49.7,222.9 50.1,223.0 50.6,223.1 51.0,223.1 51.5,223.2 51.9,223.3 52.4,223.3 52.8,223.4 53.3,223.5 53.8,223.6 54.2,223.6 54.7,223.7 55.1,223.8 55.6,223.9 56.0,223.9 56.5,224.0 57.0,224.1 57.4,224.2 57.9,224.2 58.3,224.3 58.8,224.4 59.2,224.5 59.7,224.5 60.2,224.6 60.6,224.7 61.1,224.8 61.5,224.9 62.0,224.9 62.4,225.0 62.9,225.1 63.3,225.2 63.8,225.3 64.3,225.3 64.7,225.4 65.2,225.5 65.6,225.6 66.1,225.7 66.5,225.8 67.0,225.9 67.4,225.9 67.9,226.0 68.4,226.1 68.8,226.2 69.3,226.3 69.7,226.4 70.2,226.5 70.6,226.6 71.1,226.7 71.6,226.8 72.0,226.9 72.5,226.9 72.9,227.0 73.4,227.1 73.8,227.2 74.3,227.3 74.8,227.4 75.2,227.5 75.7,227.6 76.1,227.7 76.6,227.8 77.0,227.9 77.5,228.0 77.9,228.1 78.4,228.2 78.9,228.3 79.3,228.4 79.8,228.6 80.2,228.7 80.7,228.8 81.1,228.9 81.6,229.0 82.1,229.1 82.5,229.2 83.0,229.3 83.4,229.4 83.9,229.5 84.3,229.7 84.8,229.8 85.2,229.9 85.7,230.0 86.2,230.1 86.6,230.2 87.1,230.4 87.5,230.5 88.0,230.6 88.4,230.7 88.9,230.8 89.3,231.0 89.8,231.1 90.3,231.2 90.7,231.3 91.2,231.5 91.6,231.6 92.1,231.7 92.5,231.9 93.0,232.0 93.5,232.1 93.9,232.3 94.4,232.4 94.8,232.5 95.3,232.7 95.7,232.8 96.2,233.0 96.7,233.1 97.1,233.2 97.6,233.4 98.0,233.5 98.5,233.7 98.9,233.8 99.4,234.0 99.8,234.1 100.3,234.3 100.8,234.4 101.2,234.6 101.7,234.8 102.1,234.9 102.6,235.1 103.0,235.2 103.5,235.4 103.9,235.6 104.4,235.7 104.9,235.9 105.3,236.1 105.8,236.2 106.2,236.4 106.7,236.6 107.1,236.7 107.6,236.9 108.1,237.1 108.5,237.3 109.0,237.5 109.4,237.6 109.9,237.8 110.3,238.0 110.8,238.2 111.2,238.4 111.7,238.6 112.2,238.8 112.6,239.0 113.1,239.2 113.5,239.4 114.0,239.6 114.4,239.8 114.9,240.0 115.4,240.2 115.8,240.4 116.3,240.6 116.7,240.9 117.2,241.1 117.6,241.3 118.1,241.5 118.6,241.7 119.0,242.0 119.5,242.2 119.9,242.4 120.4,242.7 120.8,242.9 121.3,243.1 121.7,243.4 122.2,243.6 122.7,243.9 123.1,244.1 123.6,244.4 124.0,244.7 124.5,244.9 124.9,245.2 125.4,245.4 125.8,245.7 126.3,246.0 126.8,246.3 127.2,246.5 127.7,246.8 128.1,247.1 128.6,247.4 129.0,247.7 129.5,248.0 130.0,248.3 130.4,248.6 130.9,248.9 131.3,249.2 131.8,249.5 132.2,249.9 132.7,250.2 133.2,250.5 133.6,250.9 134.1,251.2 134.5,251.5 135.0,251.9 135.4,252.2 135.9,252.6 136.3,253.0 136.8,253.3 137.3,253.7 137.7,254.1 138.2,254.5 138.6,254.9 139.1,255.3 139.5,255.7 140.0,256.1 140.4,256.5 140.9,256.9 141.4,257.3 141.8,257.7 142.3,258.2 142.7,258.6 143.2,259.1 143.6,259.5 144.1,260.0 144.6,260.5 145.0,261.0 145.5,261.4 145.9,261.9 146.4,262.4 146.8,263.0 147.3,263.5 147.8,264.0 148.2,264.5 148.7,265.1 149.1,265.6 149.6,266.2 150.0,266.8 150.5,267.4 150.9,268.0 151.4,268.6 151.9,269.2 152.3,269.8 152.8,270.5 153.2,271.1 153.7,271.8 154.1,272.5 154.6,273.1 155.1,273.8 155.5,274.6 156.0,275.3 156.4,276.0 156.9,276.8 157.3,277.6 157.8,278.4 158.2,279.2 158.7,280.0 159.2,280.8 159.6,281.7 160.1,282.6 160.5,283.5 161.0,284.4 161.4,285.3 161.9,286.3 162.3,287.3 162.8,288.3 163.3,289.3 163.7,290.4 164.2,291.4 164.6,292.5 165.1,293.7 165.5,294.8 166.0,296.0 166.5,297.2 166.9,298.5 167.4,299.7 167.8,301.1 168.3,302.4 168.7,303.8 169.2,305.2 169.6,306.7 170.1,308.2 170.6,309.7 171.0,311.3 171.5,312.9 171.9,314.6 172.4,316.4 172.8,318.2 173.3,320.0 173.8,321.9 174.2,323.9 174.7,325.9 175.1,328.0 175.6,330.2 176.0,332.4 176.5,334.7 176.9,337.1 177.4,339.6 177.9,342.2 178.3,344.9 178.8,347.7 179.2,350.6 179.7,353.6 180.1,356.7 180.6,360.0 181.1,363.4 181.5,367.0 182.0,370.7 182.4,374.5 182.9,378.6 183.3,382.9 183.8,387.3 184.2,392.0 184.7,396.9 185.2,402.1 185.6,407.6 186.1,413.3 186.5,419.4 187.0,425.9 187.4,432.7 187.9,440.0 188.4,447.7 188.8,456.0 189.3,464.8 189.7,474.3 190.2,484.4 190.6,495.4 191.1,507.2 191.6,520.0 192.0,533.9 192.5,549.1 192.9,565.7 193.4,584.0 193.8,604.2 194.3,626.7 194.7,651.8 195.2,680.0 195.7,712.0 196.1,748.6 196.6,790.8 197.0,840.0 197.5,898.2 197.9,968.0 198.4,1053.3 198.9,1160.0 199.3,1297.1 199.8,1480.0 200.2,1736.0 200.7,2120.0 201.1,2760.0 201.6,4040.0 202.0,7880.0" stroke="#2563eb" fill="none" stroke-width="2.4" clip-path="url(#clip0)" stroke-linejoin="round" stroke-linecap="round"/><polyline points="203.0,-7480.0 203.4,-3640.0 203.9,-2360.0 204.3,-1720.0 204.8,-1336.0 205.2,-1080.0 205.7,-897.1 206.1,-760.0 206.6,-653.3 207.1,-568.0 207.5,-498.2 208.0,-440.0 208.4,-390.8 208.9,-348.6 209.3,-312.0 209.8,-280.0 210.3,-251.8 210.7,-226.7 211.2,-204.2 211.6,-184.0 212.1,-165.7 212.5,-149.1 213.0,-133.9 213.4,-120.0 213.9,-107.2 214.4,-95.4 214.8,-84.4 215.3,-74.3 215.7,-64.8 216.2,-56.0 216.6,-47.7 217.1,-40.0 217.6,-32.7 218.0,-25.9 218.5,-19.4 218.9,-13.3 219.4,-7.6 219.8,-2.1 220.3,3.1 220.8,8.0 221.2,12.7 221.7,17.1 222.1,21.4 222.6,25.5 223.0,29.3 223.5,33.0 223.9,36.6 224.4,40.0 224.9,43.3 225.3,46.4 225.8,49.4 226.2,52.3 226.7,55.1 227.1,57.8 227.6,60.4 228.1,62.9 228.5,65.3 229.0,67.6 229.4,69.8 229.9,72.0 230.3,74.1 230.8,76.1 231.2,78.1 231.7,80.0 232.2,81.8 232.6,83.6 233.1,85.4 233.5,87.1 234.0,88.7 234.4,90.3 234.9,91.8 235.4,93.3 235.8,94.8 236.3,96.2 236.7,97.6 237.2,98.9 237.6,100.3 238.1,101.5 238.5,102.8 239.0,104.0 239.5,105.2 239.9,106.3 240.4,107.5 240.8,108.6 241.3,109.6 241.7,110.7 242.2,111.7 242.6,112.7 243.1,113.7 243.6,114.7 244.0,115.6 244.5,116.5 244.9,117.4 245.4,118.3 245.8,119.2 246.3,120.0 246.8,120.8 247.2,121.6 247.7,122.4 248.1,123.2 248.6,124.0 249.0,124.7 249.5,125.4 249.9,126.2 250.4,126.9 250.9,127.5 251.3,128.2 251.8,128.9 252.2,129.5 252.7,130.2 253.1,130.8 253.6,131.4 254.1,132.0 254.5,132.6 255.0,133.2 255.4,133.8 255.9,134.4 256.3,134.9 256.8,135.5 257.2,136.0 257.7,136.5 258.2,137.0 258.6,137.6 259.1,138.1 259.5,138.6 260.0,139.0 260.4,139.5 260.9,140.0 261.4,140.5 261.8,140.9 262.3,141.4 262.7,141.8 263.2,142.3 263.6,142.7 264.1,143.1 264.6,143.5 265.0,143.9 265.5,144.3 265.9,144.7 266.4,145.1 266.8,145.5 267.3,145.9 267.7,146.3 268.2,146.7 268.7,147.0 269.1,147.4 269.6,147.8 270.0,148.1 270.5,148.5 270.9,148.8 271.4,149.1 271.9,149.5 272.3,149.8 272.8,150.1 273.2,150.5 273.7,150.8 274.1,151.1 274.6,151.4 275.0,151.7 275.5,152.0 276.0,152.3 276.4,152.6 276.9,152.9 277.3,153.2 277.8,153.5 278.2,153.7 278.7,154.0 279.1,154.3 279.6,154.6 280.1,154.8 280.5,155.1 281.0,155.3 281.4,155.6 281.9,155.9 282.3,156.1 282.8,156.4 283.3,156.6 283.7,156.9 284.2,157.1 284.6,157.3 285.1,157.6 285.5,157.8 286.0,158.0 286.4,158.3 286.9,158.5 287.4,158.7 287.8,158.9 288.3,159.1 288.7,159.4 289.2,159.6 289.6,159.8 290.1,160.0 290.6,160.2 291.0,160.4 291.5,160.6 291.9,160.8 292.4,161.0 292.8,161.2 293.3,161.4 293.8,161.6 294.2,161.8 294.7,162.0 295.1,162.2 295.6,162.4 296.0,162.5 296.5,162.7 296.9,162.9 297.4,163.1 297.9,163.3 298.3,163.4 298.8,163.6 299.2,163.8 299.7,163.9 300.1,164.1 300.6,164.3 301.1,164.4 301.5,164.6 302.0,164.8 302.4,164.9 302.9,165.1 303.3,165.2 303.8,165.4 304.2,165.6 304.7,165.7 305.2,165.9 305.6,166.0 306.1,166.2 306.5,166.3 307.0,166.5 307.4,166.6 307.9,166.8 308.4,166.9 308.8,167.0 309.3,167.2 309.7,167.3 310.2,167.5 310.6,167.6 311.1,167.7 311.5,167.9 312.0,168.0 312.5,168.1 312.9,168.3 313.4,168.4 313.8,168.5 314.3,168.7 314.7,168.8 315.2,168.9 315.6,169.0 316.1,169.2 316.6,169.3 317.0,169.4 317.5,169.5 317.9,169.6 318.4,169.8 318.8,169.9 319.3,170.0 319.8,170.1 320.2,170.2 320.7,170.3 321.1,170.5 321.6,170.6 322.0,170.7 322.5,170.8 323.0,170.9 323.4,171.0 323.9,171.1 324.3,171.2 324.8,171.3 325.2,171.4 325.7,171.6 326.1,171.7 326.6,171.8 327.1,171.9 327.5,172.0 328.0,172.1 328.4,172.2 328.9,172.3 329.3,172.4 329.8,172.5 330.2,172.6 330.7,172.7 331.2,172.8 331.6,172.9 332.1,173.0 332.5,173.1 333.0,173.1 333.4,173.2 333.9,173.3 334.4,173.4 334.8,173.5 335.3,173.6 335.7,173.7 336.2,173.8 336.6,173.9 337.1,174.0 337.5,174.1 338.0,174.1 338.5,174.2 338.9,174.3 339.4,174.4 339.8,174.5 340.3,174.6 340.7,174.7 341.2,174.7 341.7,174.8 342.1,174.9 342.6,175.0 343.0,175.1 343.5,175.1 343.9,175.2 344.4,175.3 344.9,175.4 345.3,175.5 345.8,175.5 346.2,175.6 346.7,175.7 347.1,175.8 347.6,175.8 348.0,175.9 348.5,176.0 349.0,176.1 349.4,176.1 349.9,176.2 350.3,176.3 350.8,176.4 351.2,176.4 351.7,176.5 352.1,176.6 352.6,176.7 353.1,176.7 353.5,176.8 354.0,176.9 354.4,176.9 354.9,177.0 355.3,177.1 355.8,177.1 356.3,177.2 356.7,177.3 357.2,177.3 357.6,177.4 358.1,177.5 358.5,177.5 359.0,177.6 359.5,177.7 359.9,177.7 360.4,177.8 360.8,177.9 361.3,177.9 361.7,178.0 362.2,178.1 362.6,178.1 363.1,178.2 363.6,178.2 364.0,178.3 364.5,178.4 364.9,178.4 365.4,178.5 365.8,178.5 366.3,178.6 366.8,178.7 367.2,178.7 367.7,178.8 368.1,178.8 368.6,178.9 369.0,179.0 369.5,179.0 369.9,179.1 370.4,179.1 370.9,179.2 371.3,179.2 371.8,179.3 372.2,179.4 372.7,179.4 373.1,179.5 373.6,179.5 374.0,179.6 374.5,179.6 375.0,179.7 375.4,179.7 375.9,179.8 376.3,179.8 376.8,179.9 377.2,179.9 377.7,180.0 378.2,180.1 378.6,180.1 379.1,180.2 379.5,180.2 380.0,180.3 380.4,180.3 380.9,180.4 381.4,180.4 381.8,180.5 382.3,180.5 382.7,180.6 383.2,180.6 383.6,180.7 384.1,180.7 384.5,180.8 385.0,180.8" stroke="#2563eb" fill="none" stroke-width="2.4" clip-path="url(#clip0)" stroke-linejoin="round" stroke-linecap="round"/><line x1="202.5" y1="360.0" x2="202.5" y2="40.0" stroke="#dc2626" stroke-width="1.6" stroke-dasharray="6 4" stroke-linecap="round"/><line x1="20.0" y1="200.0" x2="385.0" y2="200.0" stroke="#dc2626" stroke-width="1.6" stroke-dasharray="6 4" stroke-linecap="round"/><circle cx="202.5" cy="200.0" r="5" fill="#dc2626"/><text x="194.5" y="192.0" fill="#fffdf8" stroke="#fffdf8" stroke-width="4" stroke-linejoin="round" font-size="14" text-anchor="end" font-weight="bold">Ω(1 ; 2)</text><text x="194.5" y="192.0" fill="#dc2626" font-size="14" text-anchor="end" font-weight="bold">Ω(1 ; 2)</text><text x="208.5" y="56.0" fill="#fffdf8" stroke="#fffdf8" stroke-width="4" stroke-linejoin="round" font-size="13" text-anchor="start" font-weight="bold">x = 1</text><text x="208.5" y="56.0" fill="#dc2626" font-size="13" text-anchor="start" font-weight="bold">x = 1</text><text x="23.7" y="192.0" fill="#fffdf8" stroke="#fffdf8" stroke-width="4" stroke-linejoin="round" font-size="13" text-anchor="start" font-weight="bold">y = 2</text><text x="23.7" y="192.0" fill="#dc2626" font-size="13" text-anchor="start" font-weight="bold">y = 2</text><text x="381.4" y="155.2" fill="#fffdf8" stroke="#fffdf8" stroke-width="4" stroke-linejoin="round" font-size="14" text-anchor="end" font-weight="bold">y = 2 + 3/(x − 1)</text><text x="381.4" y="155.2" fill="#2563eb" font-size="14" text-anchor="end" font-weight="bold">y = 2 + 3/(x − 1)</text><text x="23.7" y="315.2" fill="#fffdf8" stroke="#fffdf8" stroke-width="4" stroke-linejoin="round" font-size="14" text-anchor="start" font-weight="bold">y = 1/x</text><text x="23.7" y="315.2" fill="#6b7280" font-size="14" text-anchor="start" font-weight="bold">y = 1/x</text><text x="200.0" y="26.0" fill="#1f2937" font-size="15" text-anchor="middle" font-weight="bold">Deux hyperboles et leurs asymptotes</text></svg>