<svg xmlns="http://www.w3.org/2000/svg" viewBox="0 0 400 300" font-family="sans-serif"><title>Deux séries de même moyenne 10 mais d'écarts-types différents</title><rect x="0" y="0" width="400" height="300" rx="16" fill="#fffdf8"/><line x1="40.0" y1="110.0" x2="370.0" y2="110.0" stroke="#1f2937" stroke-width="1.4" stroke-linecap="round"/><line x1="40.0" y1="106.0" x2="40.0" y2="114.0" stroke="#1f2937" stroke-width="1.2" stroke-linecap="round"/><text x="40.0" y="130.0" fill="#6b7280" font-size="12" text-anchor="middle">2</text><line x1="81.2" y1="106.0" x2="81.2" y2="114.0" stroke="#1f2937" stroke-width="1.2" stroke-linecap="round"/><text x="81.2" y="130.0" fill="#6b7280" font-size="12" text-anchor="middle">4</text><line x1="122.5" y1="106.0" x2="122.5" y2="114.0" stroke="#1f2937" stroke-width="1.2" stroke-linecap="round"/><text x="122.5" y="130.0" fill="#6b7280" font-size="12" text-anchor="middle">6</text><line x1="163.8" y1="106.0" x2="163.8" y2="114.0" stroke="#1f2937" stroke-width="1.2" stroke-linecap="round"/><text x="163.8" y="130.0" fill="#6b7280" font-size="12" text-anchor="middle">8</text><line x1="205.0" y1="106.0" x2="205.0" y2="114.0" stroke="#1f2937" stroke-width="1.2" stroke-linecap="round"/><text x="205.0" y="130.0" fill="#6b7280" font-size="12" text-anchor="middle">10</text><line x1="246.2" y1="106.0" x2="246.2" y2="114.0" stroke="#1f2937" stroke-width="1.2" stroke-linecap="round"/><text x="246.2" y="130.0" fill="#6b7280" font-size="12" text-anchor="middle">12</text><line x1="287.5" y1="106.0" x2="287.5" y2="114.0" stroke="#1f2937" stroke-width="1.2" stroke-linecap="round"/><text x="287.5" y="130.0" fill="#6b7280" font-size="12" text-anchor="middle">14</text><line x1="328.8" y1="106.0" x2="328.8" y2="114.0" stroke="#1f2937" stroke-width="1.2" stroke-linecap="round"/><text x="328.8" y="130.0" fill="#6b7280" font-size="12" text-anchor="middle">16</text><line x1="370.0" y1="106.0" x2="370.0" y2="114.0" stroke="#1f2937" stroke-width="1.2" stroke-linecap="round"/><text x="370.0" y="130.0" fill="#6b7280" font-size="12" text-anchor="middle">18</text><rect x="175.8" y="80.0" width="58.3" height="22.0" rx="4" stroke="#2563eb" fill="#dbeafe" stroke-width="1.6"/><circle cx="163.8" cy="91.0" r="6" fill="#2563eb"/><circle cx="184.4" cy="91.0" r="6" fill="#2563eb"/><circle cx="205.0" cy="91.0" r="6" fill="#2563eb"/><circle cx="225.6" cy="91.0" r="6" fill="#2563eb"/><circle cx="246.2" cy="91.0" r="6" fill="#2563eb"/><line x1="205.0" y1="70.0" x2="205.0" y2="114.0" stroke="#059669" stroke-width="2.2" stroke-linecap="round"/><text x="40.0" y="66.0" fill="#2563eb" font-size="14" text-anchor="start" font-weight="bold">Classe A : σ ≈ 1,41</text><line x1="40.0" y1="220.0" x2="370.0" y2="220.0" stroke="#1f2937" stroke-width="1.4" stroke-linecap="round"/><line x1="40.0" y1="216.0" x2="40.0" y2="224.0" stroke="#1f2937" stroke-width="1.2" stroke-linecap="round"/><text x="40.0" y="240.0" fill="#6b7280" font-size="12" text-anchor="middle">2</text><line x1="81.2" y1="216.0" x2="81.2" y2="224.0" stroke="#1f2937" stroke-width="1.2" stroke-linecap="round"/><text x="81.2" y="240.0" fill="#6b7280" font-size="12" text-anchor="middle">4</text><line x1="122.5" y1="216.0" x2="122.5" y2="224.0" stroke="#1f2937" stroke-width="1.2" stroke-linecap="round"/><text x="122.5" y="240.0" fill="#6b7280" font-size="12" text-anchor="middle">6</text><line x1="163.8" y1="216.0" x2="163.8" y2="224.0" stroke="#1f2937" stroke-width="1.2" stroke-linecap="round"/><text x="163.8" y="240.0" fill="#6b7280" font-size="12" text-anchor="middle">8</text><line x1="205.0" y1="216.0" x2="205.0" y2="224.0" stroke="#1f2937" stroke-width="1.2" stroke-linecap="round"/><text x="205.0" y="240.0" fill="#6b7280" font-size="12" text-anchor="middle">10</text><line x1="246.2" y1="216.0" x2="246.2" y2="224.0" stroke="#1f2937" stroke-width="1.2" stroke-linecap="round"/><text x="246.2" y="240.0" fill="#6b7280" font-size="12" text-anchor="middle">12</text><line x1="287.5" y1="216.0" x2="287.5" y2="224.0" stroke="#1f2937" stroke-width="1.2" stroke-linecap="round"/><text x="287.5" y="240.0" fill="#6b7280" font-size="12" text-anchor="middle">14</text><line x1="328.8" y1="216.0" x2="328.8" y2="224.0" stroke="#1f2937" stroke-width="1.2" stroke-linecap="round"/><text x="328.8" y="240.0" fill="#6b7280" font-size="12" text-anchor="middle">16</text><line x1="370.0" y1="216.0" x2="370.0" y2="224.0" stroke="#1f2937" stroke-width="1.2" stroke-linecap="round"/><text x="370.0" y="240.0" fill="#6b7280" font-size="12" text-anchor="middle">18</text><rect x="110.9" y="190.0" width="188.1" height="22.0" rx="4" stroke="#dc2626" fill="#fee2e2" stroke-width="1.6"/><circle cx="81.2" cy="201.0" r="6" fill="#dc2626"/><circle cx="122.5" cy="201.0" r="6" fill="#dc2626"/><circle cx="205.0" cy="201.0" r="6" fill="#dc2626"/><circle cx="287.5" cy="201.0" r="6" fill="#dc2626"/><circle cx="328.8" cy="201.0" r="6" fill="#dc2626"/><line x1="205.0" y1="180.0" x2="205.0" y2="224.0" stroke="#059669" stroke-width="2.2" stroke-linecap="round"/><text x="40.0" y="176.0" fill="#dc2626" font-size="14" text-anchor="start" font-weight="bold">Classe B : σ ≈ 4,56</text><text x="200.0" y="28.0" fill="#059669" font-size="15" text-anchor="middle" font-weight="bold">Même moyenne x̄ = 10 (trait vert)</text><text x="200.0" y="285.0" fill="#1f2937" font-size="13" text-anchor="middle">Rectangle coloré : de x̄ − σ à x̄ + σ</text></svg>