<svg xmlns="http://www.w3.org/2000/svg" viewBox="0 0 400 260" width="400" height="260" role="img" font-family="system-ui, -apple-system, 'Segoe UI', Roboto, Arial, sans-serif">
<title>Répartition électronique du sodium</title>
<rect x="0" y="0" width="400" height="260" rx="18" fill="#fffdf8"/>
<circle cx="140.0" cy="130.0" r="14.0" stroke="#1f2937" stroke-width="1.5" fill="#c0262d"/>
<text x="140.0" y="135.0" font-size="11" text-anchor="middle" fill="#ffffff" font-weight="bold">+11</text>
<circle cx="140.0" cy="130.0" r="38.0" stroke="#6b7280" stroke-width="1.5" fill="none"/>
<circle cx="140.0" cy="92.0" r="6.0" stroke="#1d4ed8" stroke-width="1" fill="#1d4ed8"/>
<circle cx="140.0" cy="168.0" r="6.0" stroke="#1d4ed8" stroke-width="1" fill="#1d4ed8"/>
<text x="165.0" y="174.9" font-size="14" text-anchor="start" fill="#6b7280" font-weight="bold">K</text>
<circle cx="140.0" cy="130.0" r="72.0" stroke="#6b7280" stroke-width="1.5" fill="none"/>
<circle cx="140.0" cy="58.0" r="6.0" stroke="#1d4ed8" stroke-width="1" fill="#1d4ed8"/>
<circle cx="89.1" cy="79.1" r="6.0" stroke="#1d4ed8" stroke-width="1" fill="#1d4ed8"/>
<circle cx="68.0" cy="130.0" r="6.0" stroke="#1d4ed8" stroke-width="1" fill="#1d4ed8"/>
<circle cx="89.1" cy="180.9" r="6.0" stroke="#1d4ed8" stroke-width="1" fill="#1d4ed8"/>
<circle cx="140.0" cy="202.0" r="6.0" stroke="#1d4ed8" stroke-width="1" fill="#1d4ed8"/>
<circle cx="190.9" cy="180.9" r="6.0" stroke="#1d4ed8" stroke-width="1" fill="#1d4ed8"/>
<circle cx="212.0" cy="130.0" r="6.0" stroke="#1d4ed8" stroke-width="1" fill="#1d4ed8"/>
<circle cx="190.9" cy="79.1" r="6.0" stroke="#1d4ed8" stroke-width="1" fill="#1d4ed8"/>
<text x="182.0" y="204.4" font-size="14" text-anchor="start" fill="#6b7280" font-weight="bold">L</text>
<circle cx="140.0" cy="130.0" r="106.0" stroke="#6b7280" stroke-width="1.5" fill="none"/>
<circle cx="215.0" cy="55.0" r="6.0" stroke="#1d4ed8" stroke-width="1" fill="#1d4ed8"/>
<text x="199.0" y="233.8" font-size="14" text-anchor="start" fill="#6b7280" font-weight="bold">M</text>
<text x="270.0" y="90.0" font-size="16" text-anchor="start" fill="#1f2937" font-weight="bold">Na (Z = 11)</text>
<text x="270.0" y="122.0" font-size="18" text-anchor="start" fill="#1f2937" font-weight="normal">(K)²(L)⁸(M)¹</text>
<text x="270.0" y="156.0" font-size="13" text-anchor="start" fill="#1d4ed8" font-weight="normal">1 électron</text>
<text x="270.0" y="173.0" font-size="13" text-anchor="start" fill="#1d4ed8" font-weight="normal">de valence</text>
<text x="270.0" y="210.0" font-size="12" text-anchor="start" fill="#6b7280" font-weight="normal">K : 2 max</text>
<text x="270.0" y="227.0" font-size="12" text-anchor="start" fill="#6b7280" font-weight="normal">L : 8 max</text>
</svg>
