<svg xmlns="http://www.w3.org/2000/svg" viewBox="0 0 600 545" width="600" height="545" role="img" aria-labelledby="titre desc" font-family="Arial, Helvetica, sans-serif">
<title id="titre">Méthodes d'étude d'un milieu</title>
<desc id="desc">À gauche : appareil de Berlèse (lampe, échantillon de sol sur un tamis, entonnoir, flacon d'alcool) pour récolter la petite faune du sol. À droite : quadrat de 1 m² avec 6 pieds de l'espèce A et 3 de l'espèce B ; définitions de la densité et de la fréquence.</desc>
<defs><marker id="fl" viewBox="0 0 10 10" refX="9" refY="5" markerWidth="7" markerHeight="7" orient="auto-start-reverse"><path d="M0,0 L10,5 L0,10 z" fill="#374151"/></marker><marker id="flr" viewBox="0 0 10 10" refX="9" refY="5" markerWidth="7" markerHeight="7" orient="auto-start-reverse"><path d="M0,0 L10,5 L0,10 z" fill="#b91c1c"/></marker><marker id="flv" viewBox="0 0 10 10" refX="9" refY="5" markerWidth="7" markerHeight="7" orient="auto-start-reverse"><path d="M0,0 L10,5 L0,10 z" fill="#15803d"/></marker><marker id="flb" viewBox="0 0 10 10" refX="9" refY="5" markerWidth="7" markerHeight="7" orient="auto-start-reverse"><path d="M0,0 L10,5 L0,10 z" fill="#1d4ed8"/></marker></defs>
<rect x="0" y="0" width="600" height="545" rx="22" ry="22" fill="#fffdf8"/>
<text x="300.0" y="36" font-size="22" text-anchor="middle" font-weight="bold" fill="#1f2937">Méthodes d'étude d'un milieu</text>
<text x="150" y="70" font-size="18" text-anchor="middle" font-weight="bold" fill="#1f2937">Appareil de Berlèse</text>
<path d="M120 92 L180 92 L195 122 L105 122 Z" fill="#9ca3af" stroke="#374151" stroke-width="2"/>
<circle cx="150" cy="128" r="10" fill="#fde68a" stroke="#b45309" stroke-width="2"/>
<path d="M70 165 L230 165 L162 285 L138 285 Z" fill="#e5e7eb" stroke="#374151" stroke-width="2.5"/>
<path d="M90 165 Q150 140 210 165 Z" fill="#78350f"/>
<line x1="85" y1="178" x2="215" y2="178" stroke="#111827" stroke-width="2" stroke-dasharray="4 3"/>
<rect x="138" y="285" width="24" height="40" fill="#e5e7eb" stroke="#374151" stroke-width="2"/>
<path d="M110 330 L110 400 Q110 410 120 410 L180 410 Q190 410 190 400 L190 330" fill="#dbeafe" stroke="#374151" stroke-width="2.5"/>
<rect x="112" y="360" width="76" height="48" fill="#bfdbfe"/>
<ellipse cx="135" cy="385" rx="5" ry="3" fill="#111827"/>
<ellipse cx="160" cy="392" rx="5" ry="3" fill="#111827"/>
<ellipse cx="150" cy="375" rx="5" ry="3" fill="#111827"/>
<line x1="160" y1="112" x2="215" y2="92" stroke="#374151" stroke-width="1.6"/><circle cx="160" cy="112" r="2.6" fill="#374151"/><text x="221" y="98" font-size="15" text-anchor="start" font-weight="normal" fill="#1f2937">lampe</text>
<line x1="150" y1="158" x2="235" y2="135" stroke="#374151" stroke-width="1.6"/><circle cx="150" cy="158" r="2.6" fill="#374151"/><text x="241" y="141" font-size="15" text-anchor="start" font-weight="normal" fill="#1f2937">sol + litière</text>
<line x1="205" y1="178" x2="240" y2="195" stroke="#374151" stroke-width="1.6"/><circle cx="205" cy="178" r="2.6" fill="#374151"/><text x="246" y="201" font-size="15" text-anchor="start" font-weight="normal" fill="#1f2937">tamis</text>
<line x1="180" y1="230" x2="215" y2="262" stroke="#374151" stroke-width="1.6"/><circle cx="180" cy="230" r="2.6" fill="#374151"/><text x="221" y="268" font-size="15" text-anchor="start" font-weight="normal" fill="#1f2937">entonnoir</text>
<line x1="188" y1="385" x2="210" y2="365" stroke="#374151" stroke-width="1.6"/><circle cx="188" cy="385" r="2.6" fill="#374151"/><text x="216" y="371" font-size="15" text-anchor="start" font-weight="normal" fill="#1f2937">alcool</text>
<text x="150" y="445" font-size="15" text-anchor="middle" font-weight="normal" fill="#1f2937">Fuyant la chaleur, la lumière</text>
<text x="150" y="463" font-size="15" text-anchor="middle" font-weight="normal" fill="#1f2937">et la sécheresse, les petits</text>
<text x="150" y="481" font-size="15" text-anchor="middle" font-weight="normal" fill="#1f2937">animaux du sol tombent</text>
<text x="150" y="499" font-size="15" text-anchor="middle" font-weight="normal" fill="#1f2937">dans l'alcool.</text>
<text x="445" y="70" font-size="18" text-anchor="middle" font-weight="bold" fill="#1f2937">Quadrat de 1 m²</text>
<rect x="335" y="95" width="220" height="220" fill="#fefce8" stroke="#a16207" stroke-width="4"/>
<line x1="390.0" y1="95" x2="390.0" y2="315" stroke="#a16207" stroke-width="1" stroke-dasharray="3 3"/>
<line x1="335" y1="150.0" x2="555" y2="150.0" stroke="#a16207" stroke-width="1" stroke-dasharray="3 3"/>
<line x1="445.0" y1="95" x2="445.0" y2="315" stroke="#a16207" stroke-width="1" stroke-dasharray="3 3"/>
<line x1="335" y1="205.0" x2="555" y2="205.0" stroke="#a16207" stroke-width="1" stroke-dasharray="3 3"/>
<line x1="500.0" y1="95" x2="500.0" y2="315" stroke="#a16207" stroke-width="1" stroke-dasharray="3 3"/>
<line x1="335" y1="260.0" x2="555" y2="260.0" stroke="#a16207" stroke-width="1" stroke-dasharray="3 3"/>
<path d="M360 134 l-8 -18 M360 134 l0 -20 M360 134 l8 -18" stroke="#15803d" stroke-width="3" fill="none"/>
<path d="M400 184 l-8 -18 M400 184 l0 -20 M400 184 l8 -18" stroke="#15803d" stroke-width="3" fill="none"/>
<path d="M470 144 l-8 -18 M470 144 l0 -20 M470 144 l8 -18" stroke="#15803d" stroke-width="3" fill="none"/>
<path d="M520 254 l-8 -18 M520 254 l0 -20 M520 254 l8 -18" stroke="#15803d" stroke-width="3" fill="none"/>
<path d="M380 284 l-8 -18 M380 284 l0 -20 M380 284 l8 -18" stroke="#15803d" stroke-width="3" fill="none"/>
<path d="M450 234 l-8 -18 M450 234 l0 -20 M450 234 l8 -18" stroke="#15803d" stroke-width="3" fill="none"/>
<circle cx="500" cy="160" r="9" fill="#facc15" stroke="#a16207" stroke-width="2"/>
<circle cx="430" cy="290" r="9" fill="#facc15" stroke="#a16207" stroke-width="2"/>
<circle cx="530" cy="290" r="9" fill="#facc15" stroke="#a16207" stroke-width="2"/>
<text x="445" y="345" font-size="15" text-anchor="middle" font-weight="normal" fill="#1f2937">1 m</text>
<path d="M362 375 l-6 -14 M362 375 l0 -16 M362 375 l6 -14" stroke="#15803d" stroke-width="3" fill="none"/>
<text x="380" y="375" font-size="15" text-anchor="start" font-weight="normal" fill="#1f2937">espèce A : 6 pieds</text>
<circle cx="362" cy="400" r="8" fill="#facc15" stroke="#a16207" stroke-width="2"/>
<text x="380" y="406" font-size="15" text-anchor="start" font-weight="normal" fill="#1f2937">espèce B : 3 pieds</text>
<rect x="320" y="430" width="255" height="92" rx="10" fill="#ecfdf5" stroke="#15803d" stroke-width="1.6"/><text x="447.5" y="463.25" font-size="15" text-anchor="middle" font-weight="normal" fill="#1f2937">densité = individus / surface</text>
<text x="447.5" y="481.25" font-size="15" text-anchor="middle" font-weight="normal" fill="#1f2937">fréquence = % de quadrats</text>
<text x="447.5" y="499.25" font-size="15" text-anchor="middle" font-weight="normal" fill="#1f2937">où l'espèce est présente</text>
</svg>
