<svg xmlns="http://www.w3.org/2000/svg" viewBox="0 0 600 690" width="600" height="690" role="img" aria-labelledby="titre desc" font-family="Arial, Helvetica, sans-serif">
<title id="titre">Profil d'un sol ferrallitique</title>
<desc id="desc">Coupe verticale d'un sol ferrallitique du sud du Togo : litière A0, horizon humifère A gris-brun, épais horizon B rouge riche en argiles et oxydes de fer avec gravillons, horizon C de roche altérée tachetée, puis roche mère R (granite ou gneiss). Le lessivage entraîne les éléments vers le bas ; l'altération transforme la roche en argiles. Profondeurs indicatives.</desc>
<defs><marker id="fl" viewBox="0 0 10 10" refX="9" refY="5" markerWidth="7" markerHeight="7" orient="auto-start-reverse"><path d="M0,0 L10,5 L0,10 z" fill="#374151"/></marker><marker id="flb" viewBox="0 0 10 10" refX="9" refY="5" markerWidth="7" markerHeight="7" orient="auto-start-reverse"><path d="M0,0 L10,5 L0,10 z" fill="#1d4ed8"/></marker><marker id="flr" viewBox="0 0 10 10" refX="9" refY="5" markerWidth="7" markerHeight="7" orient="auto-start-reverse"><path d="M0,0 L10,5 L0,10 z" fill="#b91c1c"/></marker><marker id="flv" viewBox="0 0 10 10" refX="9" refY="5" markerWidth="7" markerHeight="7" orient="auto-start-reverse"><path d="M0,0 L10,5 L0,10 z" fill="#15803d"/></marker><marker id="flo" viewBox="0 0 10 10" refX="9" refY="5" markerWidth="7" markerHeight="7" orient="auto-start-reverse"><path d="M0,0 L10,5 L0,10 z" fill="#c2410c"/></marker><marker id="flm" viewBox="0 0 10 10" refX="9" refY="5" markerWidth="7" markerHeight="7" orient="auto-start-reverse"><path d="M0,0 L10,5 L0,10 z" fill="#7c3aed"/></marker></defs>
<rect x="0" y="0" width="600" height="690" rx="22" ry="22" fill="#fffdf8"/>
<text x="300.0" y="36" font-size="22" text-anchor="middle" font-weight="bold" fill="#1f2937">Profil d'un sol ferrallitique (« terre de barre »)</text>
<rect x="110" y="80" width="170" height="15" fill="#65a30d"/>
<rect x="110" y="95" width="170" height="65" fill="#7c4a2d"/>
<rect x="110" y="160" width="170" height="240" fill="#c2410c"/>
<rect x="110" y="400" width="170" height="120" fill="#e8a87c"/>
<rect x="110" y="520" width="170" height="90" fill="#94a3b8"/>
<path d="M164,84 q6,-5 12,0" stroke="#365314" stroke-width="2.5" fill="none"/>
<path d="M237,90 q6,-5 12,0" stroke="#365314" stroke-width="2.5" fill="none"/>
<path d="M243,88 q6,-5 12,0" stroke="#365314" stroke-width="2.5" fill="none"/>
<path d="M238,88 q6,-5 12,0" stroke="#365314" stroke-width="2.5" fill="none"/>
<path d="M149,86 q6,-5 12,0" stroke="#365314" stroke-width="2.5" fill="none"/>
<path d="M168,82 q6,-5 12,0" stroke="#365314" stroke-width="2.5" fill="none"/>
<path d="M119,84 q6,-5 12,0" stroke="#365314" stroke-width="2.5" fill="none"/>
<path d="M154,88 q6,-5 12,0" stroke="#365314" stroke-width="2.5" fill="none"/>
<path d="M258,86 q6,-5 12,0" stroke="#365314" stroke-width="2.5" fill="none"/>
<path d="M256,90 q6,-5 12,0" stroke="#365314" stroke-width="2.5" fill="none"/>
<path d="M258,85 q6,-5 12,0" stroke="#365314" stroke-width="2.5" fill="none"/>
<path d="M148,84 q6,-5 12,0" stroke="#365314" stroke-width="2.5" fill="none"/>
<path d="M145,84 q6,-5 12,0" stroke="#365314" stroke-width="2.5" fill="none"/>
<path d="M209,89 q6,-5 12,0" stroke="#365314" stroke-width="2.5" fill="none"/>
<path d="M243,96 q-8,25 2,50 q6,20 -4,40" stroke="#e7e5e4" stroke-width="1.6" fill="none"/>
<path d="M192,96 q-8,25 2,50 q6,20 -4,40" stroke="#e7e5e4" stroke-width="1.6" fill="none"/>
<path d="M216,96 q-8,25 2,50 q6,20 -4,40" stroke="#e7e5e4" stroke-width="1.6" fill="none"/>
<path d="M237,96 q-8,25 2,50 q6,20 -4,40" stroke="#e7e5e4" stroke-width="1.6" fill="none"/>
<path d="M137,96 q-8,25 2,50 q6,20 -4,40" stroke="#e7e5e4" stroke-width="1.6" fill="none"/>
<path d="M217,96 q-8,25 2,50 q6,20 -4,40" stroke="#e7e5e4" stroke-width="1.6" fill="none"/>
<circle cx="258.1" cy="240.4" r="4.0" fill="#7f1d1d"/>
<circle cx="191.6" cy="186.1" r="4.1" fill="#7f1d1d"/>
<circle cx="169.2" cy="242.1" r="4.4" fill="#7f1d1d"/>
<circle cx="179.0" cy="206.1" r="4.4" fill="#7f1d1d"/>
<circle cx="229.6" cy="185.3" r="2.8" fill="#7f1d1d"/>
<circle cx="141.3" cy="251.4" r="4.1" fill="#7f1d1d"/>
<circle cx="140.5" cy="244.4" r="4.5" fill="#7f1d1d"/>
<circle cx="219.2" cy="201.5" r="3.6" fill="#7f1d1d"/>
<circle cx="138.2" cy="171.3" r="4.4" fill="#7f1d1d"/>
<circle cx="218.0" cy="217.4" r="4.4" fill="#7f1d1d"/>
<circle cx="184.8" cy="248.5" r="4.2" fill="#7f1d1d"/>
<circle cx="150.5" cy="192.7" r="3.1" fill="#7f1d1d"/>
<circle cx="155.0" cy="222.8" r="3.0" fill="#7f1d1d"/>
<circle cx="182.5" cy="181.8" r="4.3" fill="#7f1d1d"/>
<circle cx="172.5" cy="211.2" r="3.7" fill="#7f1d1d"/>
<circle cx="257.3" cy="207.9" r="4.3" fill="#7f1d1d"/>
<circle cx="195.3" cy="217.9" r="3.5" fill="#7f1d1d"/>
<circle cx="120.9" cy="209.6" r="2.9" fill="#7f1d1d"/>
<circle cx="118.6" cy="241.9" r="2.8" fill="#7f1d1d"/>
<circle cx="190.9" cy="235.3" r="3.6" fill="#7f1d1d"/>
<circle cx="168.2" cy="216.7" r="3.6" fill="#7f1d1d"/>
<circle cx="238.8" cy="179.5" r="3.6" fill="#7f1d1d"/>
<circle cx="156.3" cy="194.9" r="4.0" fill="#7f1d1d"/>
<circle cx="196.2" cy="220.6" r="4.0" fill="#7f1d1d"/>
<circle cx="258.5" cy="209.9" r="3.7" fill="#7f1d1d"/>
<circle cx="195.9" cy="216.1" r="3.9" fill="#7f1d1d"/>
<ellipse cx="182.2" cy="464.4" rx="9.8" ry="5.8" fill="#fef3c7" opacity="0.8"/>
<ellipse cx="217.3" cy="499.4" rx="13.5" ry="3.8" fill="#fef3c7" opacity="0.8"/>
<ellipse cx="197.5" cy="506.2" rx="12.7" ry="3.4" fill="#fef3c7" opacity="0.8"/>
<ellipse cx="135.3" cy="455.1" rx="6.6" ry="3.7" fill="#fef3c7" opacity="0.8"/>
<ellipse cx="128.4" cy="478.3" rx="12.3" ry="5.7" fill="#fef3c7" opacity="0.8"/>
<ellipse cx="139.9" cy="483.0" rx="11.3" ry="3.4" fill="#fef3c7" opacity="0.8"/>
<ellipse cx="243.4" cy="508.7" rx="7.8" ry="5.9" fill="#fef3c7" opacity="0.8"/>
<ellipse cx="174.6" cy="459.7" rx="13.9" ry="5.5" fill="#fef3c7" opacity="0.8"/>
<ellipse cx="140.9" cy="454.0" rx="10.1" ry="4.0" fill="#fef3c7" opacity="0.8"/>
<ellipse cx="145.8" cy="442.5" rx="11.8" ry="3.1" fill="#fef3c7" opacity="0.8"/>
<ellipse cx="196.7" cy="454.9" rx="6.1" ry="4.0" fill="#fef3c7" opacity="0.8"/>
<ellipse cx="206.6" cy="462.3" rx="6.5" ry="6.0" fill="#fef3c7" opacity="0.8"/>
<ellipse cx="229.9" cy="509.1" rx="6.8" ry="3.8" fill="#fef3c7" opacity="0.8"/>
<ellipse cx="123.6" cy="489.5" rx="8.2" ry="3.4" fill="#fef3c7" opacity="0.8"/>
<ellipse cx="178.0" cy="503.0" rx="12.6" ry="3.8" fill="#fef3c7" opacity="0.8"/>
<ellipse cx="139.2" cy="503.8" rx="10.6" ry="5.1" fill="#fef3c7" opacity="0.8"/>
<ellipse cx="130.7" cy="415.9" rx="11.5" ry="4.3" fill="#fef3c7" opacity="0.8"/>
<ellipse cx="128.3" cy="505.7" rx="11.1" ry="5.4" fill="#fef3c7" opacity="0.8"/>
<ellipse cx="129.9" cy="497.6" rx="5.3" ry="4.7" fill="#b91c1c" opacity="0.55"/>
<ellipse cx="182.4" cy="445.9" rx="7.8" ry="4.9" fill="#b91c1c" opacity="0.55"/>
<ellipse cx="156.0" cy="424.9" rx="7.6" ry="3.5" fill="#b91c1c" opacity="0.55"/>
<ellipse cx="133.5" cy="428.1" rx="5.3" ry="3.4" fill="#b91c1c" opacity="0.55"/>
<ellipse cx="162.3" cy="442.5" rx="8.8" ry="3.6" fill="#b91c1c" opacity="0.55"/>
<ellipse cx="189.0" cy="429.8" rx="6.7" ry="3.0" fill="#b91c1c" opacity="0.55"/>
<ellipse cx="153.6" cy="413.5" rx="8.7" ry="4.1" fill="#b91c1c" opacity="0.55"/>
<ellipse cx="144.9" cy="459.5" rx="9.7" ry="3.2" fill="#b91c1c" opacity="0.55"/>
<ellipse cx="234.3" cy="455.2" rx="7.5" ry="4.7" fill="#b91c1c" opacity="0.55"/>
<path d="M110,560 L160,548 L190,575 L240,556 L280,570" stroke="#475569" stroke-width="2" fill="none"/>
<path d="M180,520 L170,545 M230,520 L240,555" stroke="#475569" stroke-width="2" fill="none"/>
<rect x="110" y="80" width="170" height="530" fill="none" stroke="#374151" stroke-width="2"/>
<text x="294" y="92.5" font-size="15" text-anchor="start" font-weight="bold" fill="#1f2937">A0 : litière</text>
<text x="400" y="92.5" font-size="13" text-anchor="start" font-weight="normal" fill="#4b5563">(feuilles mortes, débris)</text>
<line x1="280" y1="95" x2="288" y2="95" stroke="#374151" stroke-width="1.5"/>
<text x="294" y="115.5" font-size="15" text-anchor="start" font-weight="bold" fill="#1f2937">A : horizon humifère</text>
<text x="294" y="134.5" font-size="14" text-anchor="start" font-weight="normal" fill="#4b5563">gris-brun, riche en humus,</text>
<text x="294" y="152.5" font-size="14" text-anchor="start" font-weight="normal" fill="#4b5563">racines, vers, termites</text>
<line x1="280" y1="160" x2="288" y2="160" stroke="#374151" stroke-width="1.5"/>
<text x="294" y="268.0" font-size="15" text-anchor="start" font-weight="bold" fill="#1f2937">B : horizon rouge</text>
<text x="294" y="287.0" font-size="14" text-anchor="start" font-weight="normal" fill="#4b5563">argiles (kaolinite) et oxydes de</text>
<text x="294" y="305.0" font-size="14" text-anchor="start" font-weight="normal" fill="#4b5563">fer accumulés ; gravillons</text>
<line x1="280" y1="400" x2="288" y2="400" stroke="#374151" stroke-width="1.5"/>
<text x="294" y="448.0" font-size="15" text-anchor="start" font-weight="bold" fill="#1f2937">C : roche altérée</text>
<text x="294" y="467.0" font-size="14" text-anchor="start" font-weight="normal" fill="#4b5563">altérite tachetée, gardant</text>
<text x="294" y="485.0" font-size="14" text-anchor="start" font-weight="normal" fill="#4b5563">la structure de la roche</text>
<line x1="280" y1="520" x2="288" y2="520" stroke="#374151" stroke-width="1.5"/>
<text x="294" y="553.0" font-size="15" text-anchor="start" font-weight="bold" fill="#1f2937">R : roche mère</text>
<text x="294" y="572.0" font-size="14" text-anchor="start" font-weight="normal" fill="#4b5563">granite ou gneiss du socle,</text>
<text x="294" y="590.0" font-size="14" text-anchor="start" font-weight="normal" fill="#4b5563">saine, fissurée</text>
<line x1="280" y1="610" x2="288" y2="610" stroke="#374151" stroke-width="1.5"/>
<line x1="88" y1="80" x2="88" y2="610" stroke="#374151" stroke-width="1.5"/>
<line x1="83" y1="80" x2="93" y2="80" stroke="#374151" stroke-width="1.5"/>
<text x="80" y="85" font-size="13" text-anchor="end" font-weight="normal" fill="#4b5563">0</text>
<line x1="83" y1="160" x2="93" y2="160" stroke="#374151" stroke-width="1.5"/>
<text x="80" y="165" font-size="13" text-anchor="end" font-weight="normal" fill="#4b5563">≈ 30 cm</text>
<line x1="83" y1="400" x2="93" y2="400" stroke="#374151" stroke-width="1.5"/>
<text x="80" y="405" font-size="13" text-anchor="end" font-weight="normal" fill="#4b5563">≈ 3 m</text>
<line x1="83" y1="520" x2="93" y2="520" stroke="#374151" stroke-width="1.5"/>
<text x="80" y="525" font-size="13" text-anchor="end" font-weight="normal" fill="#4b5563">10 m</text>
<line x1="83" y1="610" x2="93" y2="610" stroke="#374151" stroke-width="1.5"/>
<text x="80" y="615" font-size="13" text-anchor="end" font-weight="normal" fill="#4b5563"></text>
<text x="60" y="642" font-size="13" text-anchor="start" font-weight="normal" fill="#4b5563">profondeurs indicatives (échelle non respectée)</text>
<line x1="195" y1="165" x2="195" y2="390" stroke="#fef3c7" stroke-width="3" marker-end="url(#fl)" stroke-dasharray="7 5"/>
<text x="294" y="350" font-size="14" text-anchor="start" font-weight="normal" fill="#1d4ed8">↓ lessivage : l'eau de pluie</text>
<text x="294" y="368" font-size="14" text-anchor="start" font-weight="normal" fill="#1d4ed8">entraîne ions et particules</text>
<text x="294" y="508" font-size="14" text-anchor="start" font-weight="normal" fill="#7c2d12">↑ altération : la roche</text>
<text x="294" y="526" font-size="14" text-anchor="start" font-weight="normal" fill="#7c2d12">se transforme en argiles</text>
<text x="60" y="666" font-size="14" text-anchor="start" font-weight="normal" fill="#4b5563">Climat chaud et humide : altération profonde, sur plusieurs mètres.</text>
</svg>
